<?xml version="1.0" standalone="no"?>
<!DOCTYPE svg PUBLIC "-//W3C//DTD SVG 20010904//EN"
 "http://www.w3.org/TR/2001/REC-SVG-20010904/DTD/svg10.dtd">
<svg version="1.0" xmlns="http://www.w3.org/2000/svg"
 width="400.000000pt" height="400.000000pt" viewBox="0 0 400.000000 400.000000"
 preserveAspectRatio="xMidYMid meet">
<metadata>
Created by potrace 1.11, written by Peter Selinger 2001-2013
</metadata>
<g transform="translate(0.000000,400.000000) scale(0.100000,-0.100000)"
fill="#000000" stroke="none">
<path d="M1805 3984 c-93 -14 -123 -29 -159 -78 -18 -24 -22 -46 -26 -171 -6
-169 -7 -170 -110 -204 l-66 -21 4 -67 c4 -51 1 -69 -11 -77 -14 -11 -27 -78
-27 -141 1 -38 10 -52 118 -162 l90 -93 36 15 c165 69 430 77 633 20 98 -28
222 -85 304 -141 126 -85 280 -264 351 -409 107 -215 133 -504 67 -727 -18
-62 -18 -69 -4 -85 9 -10 28 -32 43 -49 44 -51 86 -67 151 -60 94 11 212 12
255 1 57 -14 85 -8 92 20 13 52 35 60 189 65 158 6 180 14 218 78 60 102 59
531 -1 611 -44 59 -63 65 -217 71 -173 6 -168 3 -214 139 -18 52 -53 136 -77
186 -64 133 -63 142 42 245 131 129 143 180 72 290 -54 84 -234 264 -318 318
-50 33 -74 42 -108 42 -59 0 -84 -16 -182 -114 -104 -106 -116 -108 -247 -42
-49 24 -131 59 -183 77 -137 46 -134 41 -140 214 -6 159 -13 180 -79 219 -70
41 -325 57 -496 30z"/>
<path d="M535 3960 c-128 -34 -180 -65 -159 -95 5 -8 77 -58 159 -110 182
-117 210 -143 232 -212 15 -47 15 -62 4 -116 -35 -169 -165 -307 -290 -307
-64 0 -74 4 -276 132 -153 97 -171 106 -183 91 -18 -25 -15 -129 7 -215 42
-164 139 -306 271 -394 116 -79 310 -120 405 -87 22 8 45 16 52 17 7 1 15 5
19 8 15 16 88 -35 164 -113 44 -44 103 -93 140 -114 10 -6 196 -174 413 -373
346 -317 614 -581 1070 -1056 26 -28 48 -59 49 -70 0 -12 2 -28 2 -36 1 -8 -2
-31 -6 -50 -28 -120 -29 -224 -4 -320 3 -8 5 -21 5 -29 1 -8 4 -11 8 -8 3 4
19 -20 35 -53 79 -164 294 -311 491 -335 l57 -7 0 -54 0 -54 40 0 40 0 0 60 0
60 36 0 c71 0 230 53 245 83 14 25 16 23 -161 137 -80 52 -159 107 -177 123
-44 41 -66 105 -61 177 9 131 134 299 243 330 82 23 106 13 394 -170 51 -33
97 -60 102 -60 21 0 31 46 26 115 -20 230 -157 440 -355 545 -99 52 -93 51
-202 52 -89 1 -126 -4 -158 -21 -10 -5 -37 -11 -59 -12 -46 -3 -48 -2 -198
136 -288 263 -610 558 -740 677 -140 128 -779 772 -824 829 -11 14 -33 39 -49
57 -26 27 -28 37 -26 88 1 31 7 60 11 63 14 9 14 148 1 231 -17 111 -59 192
-143 275 -87 87 -165 140 -253 173 -92 35 -291 41 -397 12z"/>
<path d="M738 2565 c-11 -11 -55 -17 -148 -20 -52 -2 -98 -4 -101 -4 -4 -1
-14 -28 -23 -61 -26 -92 -42 -100 -193 -100 -83 0 -135 -5 -157 -14 -78 -32
-107 -121 -113 -340 -5 -145 16 -296 45 -335 44 -59 63 -65 217 -71 172 -6
168 -3 213 -137 18 -50 52 -134 77 -187 64 -137 63 -144 -41 -246 -131 -129
-144 -182 -72 -291 61 -92 221 -253 307 -310 62 -41 81 -49 121 -49 41 0 56 6
97 39 26 21 75 66 108 100 75 77 96 79 221 17 49 -24 132 -58 184 -75 137 -46
140 -51 140 -209 0 -144 12 -181 68 -218 47 -32 156 -48 322 -49 219 0 292 18
344 89 18 24 22 46 26 173 5 143 5 145 33 168 15 13 43 27 63 31 43 8 50 22
35 77 -15 52 -18 181 -6 262 16 109 15 114 -24 154 -68 72 -75 74 -166 45
-366 -117 -751 -27 -1030 238 -143 136 -222 261 -286 453 l-34 100 0 205 c1
197 2 208 28 285 l27 80 -48 45 c-145 135 -177 160 -202 160 -15 0 -29 -2 -32
-5z"/>
</g>
</svg>
